<svg width="523" height="152" viewBox="0 0 523 152" fill="none" xmlns="http://www.w3.org/2000/svg">
<path d="M141 47.8885C106.5 -28.6115 17.5 -2.6115 0 50.3885C26 84.7886 57.1667 78.0552 69.5 70.3885C101.1 57.5885 123.667 66.3885 131 72.3885C123 43.9885 98.3333 41.8885 87 44.3885C51 60.3885 27 52.3885 19.5 46.3885C62.3 -10.8115 106.667 22.5552 123.5 46.3885C133.1 48.7885 141.833 58.0552 145 62.3885C144.6 57.5885 142.167 50.7219 141 47.8885Z" fill="#FF6600"/>
<path d="M4.93405 103.176C39.9723 179.431 128.787 152.805 145.913 99.6827C119.671 65.4667 88.5527 72.4196 76.2737 80.173C44.7647 93.1954 22.1366 84.5546 14.7612 78.6064C22.9611 106.949 47.6419 108.875 58.9574 106.296C94.8437 90.0424 118.9 97.8731 126.442 103.82C84.0457 161.32 39.445 128.267 22.4442 104.553C12.8275 102.221 4.0291 93.0157 0.831968 88.7048C1.26578 93.5019 3.74744 100.351 4.93405 103.176Z" fill="#EEEEEE"/>
<path d="M175.31 90.2756C175.196 89.1297 174.708 88.2396 173.847 87.6051C172.985 86.9706 171.815 86.6534 170.338 86.6534C169.334 86.6534 168.487 86.7955 167.795 87.0795C167.104 87.3542 166.574 87.7377 166.205 88.2301C165.845 88.7225 165.665 89.2812 165.665 89.9062C165.646 90.4271 165.755 90.8816 165.991 91.2699C166.238 91.6581 166.574 91.9943 167 92.2784C167.426 92.553 167.919 92.7945 168.477 93.0028C169.036 93.2017 169.633 93.3722 170.267 93.5142L172.881 94.1392C174.15 94.4233 175.314 94.8021 176.375 95.2756C177.436 95.7491 178.354 96.3314 179.131 97.0227C179.907 97.714 180.509 98.5284 180.935 99.4659C181.37 100.403 181.593 101.478 181.602 102.69C181.593 104.471 181.138 106.014 180.239 107.321C179.348 108.618 178.061 109.627 176.375 110.347C174.699 111.057 172.677 111.412 170.31 111.412C167.961 111.412 165.916 111.052 164.173 110.332C162.44 109.613 161.086 108.547 160.111 107.136C159.145 105.716 158.638 103.959 158.591 101.866H164.543C164.609 102.842 164.888 103.656 165.381 104.31C165.883 104.954 166.55 105.441 167.384 105.773C168.226 106.095 169.178 106.256 170.239 106.256C171.28 106.256 172.185 106.104 172.952 105.801C173.728 105.498 174.33 105.077 174.756 104.537C175.182 103.997 175.395 103.377 175.395 102.676C175.395 102.023 175.201 101.473 174.812 101.028C174.434 100.583 173.875 100.205 173.136 99.892C172.407 99.5795 171.512 99.2955 170.452 99.0398L167.284 98.2443C164.831 97.6477 162.895 96.715 161.474 95.446C160.054 94.1771 159.348 92.4678 159.358 90.3182C159.348 88.5568 159.817 87.018 160.764 85.7017C161.721 84.3854 163.032 83.358 164.699 82.6193C166.366 81.8807 168.259 81.5114 170.381 81.5114C172.54 81.5114 174.424 81.8807 176.034 82.6193C177.653 83.358 178.913 84.3854 179.812 85.7017C180.712 87.018 181.176 88.5426 181.205 90.2756H175.31ZM211.407 92.0938H205.185C205.072 91.2888 204.84 90.5739 204.489 89.9489C204.139 89.3144 203.689 88.7746 203.14 88.3295C202.591 87.8845 201.956 87.5436 201.237 87.3068C200.526 87.0701 199.754 86.9517 198.921 86.9517C197.415 86.9517 196.104 87.3258 194.987 88.0739C193.869 88.8125 193.003 89.892 192.387 91.3125C191.772 92.7235 191.464 94.4375 191.464 96.4545C191.464 98.5284 191.772 100.271 192.387 101.682C193.012 103.093 193.883 104.158 195.001 104.878C196.118 105.598 197.411 105.957 198.879 105.957C199.702 105.957 200.465 105.848 201.165 105.631C201.876 105.413 202.505 105.096 203.055 104.679C203.604 104.253 204.058 103.737 204.418 103.131C204.788 102.525 205.043 101.833 205.185 101.057L211.407 101.085C211.246 102.42 210.844 103.708 210.2 104.949C209.565 106.18 208.708 107.283 207.629 108.259C206.558 109.224 205.28 109.991 203.793 110.56C202.316 111.118 200.645 111.398 198.779 111.398C196.184 111.398 193.864 110.811 191.819 109.636C189.783 108.462 188.173 106.762 186.989 104.537C185.815 102.312 185.228 99.6174 185.228 96.4545C185.228 93.2822 185.825 90.5833 187.018 88.358C188.211 86.1326 189.83 84.4375 191.876 83.2727C193.921 82.0985 196.222 81.5114 198.779 81.5114C200.465 81.5114 202.027 81.7481 203.467 82.2216C204.915 82.6951 206.199 83.3864 207.316 84.2955C208.433 85.1951 209.343 86.2983 210.043 87.6051C210.754 88.9119 211.208 90.4081 211.407 92.0938ZM215.817 111V81.9091H221.968V93.9119H234.454V81.9091H240.59V111H234.454V98.983H221.968V111H215.817ZM245.661 111V81.9091H265.263V86.9801H251.812V93.9119H264.255V98.983H251.812V105.929H265.32V111H245.661ZM270.153 111V81.9091H289.756V86.9801H276.304V93.9119H288.747V98.983H276.304V105.929H289.812V111H270.153ZM294.646 111V81.9091H306.123C308.329 81.9091 310.209 82.3305 311.762 83.1733C313.315 84.0066 314.499 85.1667 315.313 86.6534C316.137 88.1307 316.549 89.8352 316.549 91.767C316.549 93.6989 316.132 95.4034 315.299 96.8807C314.466 98.358 313.258 99.5085 311.677 100.332C310.105 101.156 308.201 101.568 305.967 101.568H298.651V96.6392H304.972C306.156 96.6392 307.131 96.4356 307.898 96.0284C308.675 95.6117 309.253 95.0388 309.631 94.3097C310.02 93.571 310.214 92.7235 310.214 91.767C310.214 90.8011 310.02 89.9583 309.631 89.2386C309.253 88.5095 308.675 87.946 307.898 87.5483C307.122 87.1411 306.137 86.9375 304.944 86.9375H300.796V111H294.646ZM325.8 81.9091L332.831 104.011H333.101L340.146 81.9091H346.964L336.936 111H329.01L318.967 81.9091H325.8ZM351.613 111H345.022L355.065 81.9091H362.991L373.019 111H366.428L359.141 88.5568H358.914L351.613 111ZM351.201 99.5653H366.769V104.366H351.201V99.5653ZM381.535 111H374.944L384.987 81.9091H392.913L402.941 111H396.35L389.063 88.5568H388.836L381.535 111ZM381.123 99.5653H396.691V104.366H381.123V99.5653ZM406.442 111V81.9091H417.92C420.117 81.9091 421.992 82.3021 423.545 83.0881C425.107 83.8646 426.296 84.9678 427.11 86.3977C427.934 87.8182 428.346 89.4896 428.346 91.4119C428.346 93.3437 427.929 95.0057 427.096 96.3977C426.263 97.7803 425.055 98.8409 423.474 99.5795C421.902 100.318 419.998 100.688 417.763 100.688H410.079V95.7443H416.769C417.943 95.7443 418.919 95.5833 419.695 95.2614C420.472 94.9394 421.049 94.4564 421.428 93.8125C421.817 93.1686 422.011 92.3684 422.011 91.4119C422.011 90.446 421.817 89.6316 421.428 88.9688C421.049 88.3059 420.467 87.804 419.681 87.4631C418.905 87.1127 417.924 86.9375 416.741 86.9375H412.593V111H406.442ZM422.153 97.7614L429.383 111H422.593L415.519 97.7614H422.153ZM431.585 86.9801V81.9091H455.477V86.9801H446.57V111H440.491V86.9801H431.585ZM468.669 111V81.9091H480.317C482.457 81.9091 484.242 82.2263 485.672 82.8608C487.102 83.4953 488.177 84.3759 488.896 85.5028C489.616 86.6203 489.976 87.9081 489.976 89.3665C489.976 90.5028 489.749 91.5019 489.294 92.3636C488.839 93.2159 488.214 93.9167 487.419 94.4659C486.633 95.0057 485.733 95.3892 484.72 95.6165V95.9006C485.828 95.9479 486.865 96.2604 487.831 96.8381C488.806 97.4157 489.597 98.2254 490.203 99.267C490.809 100.299 491.112 101.53 491.112 102.96C491.112 104.504 490.729 105.882 489.962 107.094C489.204 108.296 488.082 109.248 486.595 109.949C485.108 110.65 483.276 111 481.098 111H468.669ZM474.82 105.972H479.834C481.548 105.972 482.798 105.645 483.584 104.991C484.37 104.329 484.763 103.448 484.763 102.349C484.763 101.545 484.569 100.834 484.18 100.219C483.792 99.6032 483.238 99.1203 482.518 98.7699C481.808 98.4195 480.961 98.2443 479.976 98.2443H474.82V105.972ZM474.82 94.0824H479.379C480.222 94.0824 480.97 93.9356 481.624 93.642C482.286 93.339 482.807 92.9129 483.186 92.3636C483.574 91.8144 483.768 91.1562 483.768 90.3892C483.768 89.3381 483.394 88.4905 482.646 87.8466C481.908 87.2027 480.857 86.8807 479.493 86.8807H474.82V94.0824ZM500.37 81.9091L507.401 104.011H507.671L514.717 81.9091H521.535L511.506 111H503.58L493.538 81.9091H500.37Z" fill="#EEEEEE"/>
<path d="M181.239 53H178.068C177.881 52.0881 177.553 51.2869 177.084 50.5966C176.624 49.9062 176.061 49.3267 175.396 48.858C174.74 48.3807 174.011 48.0227 173.21 47.7841C172.409 47.5455 171.574 47.4261 170.705 47.4261C169.119 47.4261 167.683 47.8267 166.396 48.6278C165.118 49.429 164.099 50.6094 163.341 52.169C162.591 53.7287 162.216 55.642 162.216 57.9091C162.216 60.1761 162.591 62.0895 163.341 63.6491C164.099 65.2088 165.118 66.3892 166.396 67.1903C167.683 67.9915 169.119 68.392 170.705 68.392C171.574 68.392 172.409 68.2727 173.21 68.0341C174.011 67.7955 174.74 67.4418 175.396 66.973C176.061 66.4957 176.624 65.9119 177.084 65.2216C177.553 64.5227 177.881 63.7216 178.068 62.8182H181.239C181 64.1562 180.565 65.3537 179.935 66.4105C179.304 67.4673 178.52 68.3665 177.582 69.108C176.645 69.8409 175.592 70.3991 174.425 70.7827C173.266 71.1662 172.026 71.358 170.705 71.358C168.472 71.358 166.486 70.8125 164.747 69.7216C163.009 68.6307 161.641 67.0795 160.643 65.0682C159.646 63.0568 159.148 60.6705 159.148 57.9091C159.148 55.1477 159.646 52.7614 160.643 50.75C161.641 48.7386 163.009 47.1875 164.747 46.0966C166.486 45.0057 168.472 44.4602 170.705 44.4602C172.026 44.4602 173.266 44.652 174.425 45.0355C175.592 45.419 176.645 45.9815 177.582 46.723C178.52 47.456 179.304 48.3509 179.935 49.4077C180.565 50.456 181 51.6534 181.239 53ZM187.436 71H184.112L193.725 44.8182H196.998L206.612 71H203.288L195.464 48.9602H195.26L187.436 71ZM188.663 60.7727H202.061V63.5852H188.663V60.7727ZM210.69 44.8182H214.474L223.372 66.5511H223.679L232.576 44.8182H236.36V71H233.395V51.108H233.139L224.957 71H222.093L213.912 51.108H213.656V71H210.69V44.8182ZM242.717 71V44.8182H251.871C253.695 44.8182 255.199 45.1335 256.384 45.7642C257.568 46.3864 258.45 47.2259 259.03 48.2827C259.609 49.331 259.899 50.4943 259.899 51.7727C259.899 52.8977 259.699 53.8267 259.298 54.5597C258.906 55.2926 258.386 55.8722 257.739 56.2983C257.099 56.7244 256.405 57.0398 255.655 57.2443V57.5C256.456 57.5511 257.261 57.8324 258.071 58.3438C258.881 58.8551 259.558 59.5881 260.104 60.5426C260.649 61.4972 260.922 62.6648 260.922 64.0455C260.922 65.358 260.624 66.5384 260.027 67.5866C259.43 68.6349 258.489 69.4659 257.202 70.0795C255.915 70.6932 254.24 71 252.178 71H242.717ZM245.888 68.1875H252.178C254.249 68.1875 255.719 67.7869 256.588 66.9858C257.466 66.1761 257.905 65.196 257.905 64.0455C257.905 63.1591 257.679 62.3409 257.227 61.5909C256.776 60.8324 256.132 60.2273 255.297 59.7756C254.462 59.3153 253.473 59.0852 252.331 59.0852H245.888V68.1875ZM245.888 56.3239H251.768C252.723 56.3239 253.584 56.1364 254.351 55.7614C255.126 55.3864 255.74 54.858 256.192 54.1761C256.652 53.4943 256.882 52.6932 256.882 51.7727C256.882 50.6222 256.482 49.6463 255.68 48.8452C254.879 48.0355 253.609 47.6307 251.871 47.6307H245.888V56.3239ZM269.302 44.8182V71H266.131V44.8182H269.302ZM297.75 57.9091C297.75 60.6705 297.251 63.0568 296.254 65.0682C295.257 67.0795 293.889 68.6307 292.15 69.7216C290.412 70.8125 288.426 71.358 286.193 71.358C283.96 71.358 281.974 70.8125 280.235 69.7216C278.497 68.6307 277.129 67.0795 276.132 65.0682C275.135 63.0568 274.636 60.6705 274.636 57.9091C274.636 55.1477 275.135 52.7614 276.132 50.75C277.129 48.7386 278.497 47.1875 280.235 46.0966C281.974 45.0057 283.96 44.4602 286.193 44.4602C288.426 44.4602 290.412 45.0057 292.15 46.0966C293.889 47.1875 295.257 48.7386 296.254 50.75C297.251 52.7614 297.75 55.1477 297.75 57.9091ZM294.681 57.9091C294.681 55.642 294.302 53.7287 293.544 52.169C292.794 50.6094 291.775 49.429 290.488 48.6278C289.21 47.8267 287.778 47.4261 286.193 47.4261C284.608 47.4261 283.172 47.8267 281.885 48.6278C280.606 49.429 279.588 50.6094 278.829 52.169C278.079 53.7287 277.704 55.642 277.704 57.9091C277.704 60.1761 278.079 62.0895 278.829 63.6491C279.588 65.2088 280.606 66.3892 281.885 67.1903C283.172 67.9915 284.608 68.392 286.193 68.392C287.778 68.392 289.21 67.9915 290.488 67.1903C291.775 66.3892 292.794 65.2088 293.544 63.6491C294.302 62.0895 294.681 60.1761 294.681 57.9091Z" fill="#FF6600"/>
</svg>
